<?xml version="1.0" encoding="UTF-8" standalone="no"?>
<!DOCTYPE svg PUBLIC "-//W3C//DTD SVG 1.1//EN" "http://www.w3.org/Graphics/SVG/1.1/DTD/svg11.dtd">
<svg width="25px" height="26px" version="1.1" xmlns="http://www.w3.org/2000/svg" xmlns:xlink="http://www.w3.org/1999/xlink" xml:space="preserve" xmlns:serif="http://www.serif.com/" style="fill-rule:evenodd;clip-rule:evenodd;stroke-linecap:round;stroke-linejoin:round;stroke-miterlimit:1.5;">
    <g transform="matrix(1,0,0,1,0,-326)">
        <g id="Logout" transform="matrix(0.500559,0,0,0.500867,-48.8731,326.983)">
            <rect x="98" y="0" width="48" height="48" style="fill:none;"/>
            <g transform="matrix(1.59033,0,0,1.99654,-24.1264,-110.356)">
                <path d="M92.793,67.295L104.463,67.295" style="fill:none;stroke: currentColor;stroke-width:1.44px;"/>
            </g>
            <g transform="matrix(1.99777,0,0,1.99654,-66.6878,-110.356)">
                <path d="M104.463,67.295L100.629,63.461" style="fill:none;stroke: currentColor;stroke-width:1.3px;"/>
            </g>
            <g transform="matrix(1.99777,0,0,-1.99654,-66.6878,158.356)">
                <path d="M104.463,67.295L100.629,63.461" style="fill:none;stroke: currentColor;stroke-width:1.3px;"/>
            </g>
            <g transform="matrix(1.90796,0,0,2.25988,-60.7117,-126.347)">
                <path d="M98.333,64.54L98.263,58.763L86.856,58.746L86.856,74.168L98.311,74.168L98.311,68.35" style="fill:none;stroke: currentColor;stroke-width:1.24px;"/>
            </g>
            <g transform="matrix(1.99777,0,0,1.99654,97.6738,-652.041)">
                <path d="M11.808,333.458C11.808,333.122 11.535,332.849 11.199,332.849L7.103,332.849C6.767,332.849 6.494,333.122 6.494,333.458L6.494,337.916C6.494,338.252 6.767,338.525 7.103,338.525L11.199,338.525C11.535,338.525 11.808,338.252 11.808,337.916L11.808,333.458Z" style="fill-opacity:0.31;"/>
            </g>
        </g>
    </g>
</svg>
